<?xml version="1.0" standalone="no"?><!DOCTYPE svg PUBLIC "-//W3C//DTD SVG 1.1//EN" "http://www.w3.org/Graphics/SVG/1.1/DTD/svg11.dtd"><svg t="1589623340289" class="icon" viewBox="0 0 1024 1024" version="1.1" xmlns="http://www.w3.org/2000/svg" p-id="19700" xmlns:xlink="http://www.w3.org/1999/xlink" width="200" height="200"><defs><style type="text/css"></style></defs><path d="M621.226667 430.08l-109.226667-136.533333-109.226667 136.533333-54.613333-40.96 163.84-204.8 163.84 204.8z" fill="#1296db" p-id="19701"></path><path d="M955.733333 955.733333H68.266667V295.253333l215.04 206.506667-47.786667 49.493333L136.533333 455.68V887.466667h750.933334V455.68l-98.986667 95.573333-47.786667-49.493333L955.733333 295.253333zM512 230.4c-51.2 0-93.866667-42.666667-93.866667-93.866667S460.8 42.666667 512 42.666667 605.866667 85.333333 605.866667 136.533333 563.2 230.4 512 230.4z m0-119.466667c-13.653333 0-25.6 11.946667-25.6 25.6s11.946667 25.6 25.6 25.6 25.6-11.946667 25.6-25.6-11.946667-25.6-25.6-25.6z" fill="#1296db" p-id="19702"></path><path d="M324.266667 665.6h375.466666v68.266667H324.266667z" fill="#1296db" p-id="19703"></path></svg>